<svg xmlns="http://www.w3.org/2000/svg" xmlns:xlink="http://www.w3.org/1999/xlink" width="100" zoomAndPan="magnify" viewBox="0 0 75 30.000001" height="40" preserveAspectRatio="xMidYMid meet" version="1.0"><defs><g/></defs><g fill="#2b2b2b" fill-opacity="1"><g transform="translate(2.983058, 19.003278)"><g><path d="M 7.140625 -0.453125 C 6.722656 -0.128906 6.335938 0.0195312 5.984375 0 C 5.640625 -0.0078125 5.320312 -0.140625 5.03125 -0.390625 C 4.75 -0.640625 4.488281 -0.960938 4.25 -1.359375 C 4.007812 -1.753906 3.796875 -2.175781 3.609375 -2.625 C 3.421875 -3.070312 3.253906 -3.492188 3.109375 -3.890625 C 2.960938 -4.285156 2.832031 -4.609375 2.71875 -4.859375 C 2.675781 -4.828125 2.65625 -4.695312 2.65625 -4.46875 C 2.65625 -4.25 2.664062 -3.988281 2.6875 -3.6875 C 2.71875 -3.394531 2.742188 -3.117188 2.765625 -2.859375 C 2.785156 -2.597656 2.789062 -2.410156 2.78125 -2.296875 C 2.757812 -2.078125 2.710938 -1.832031 2.640625 -1.5625 C 2.566406 -1.300781 2.457031 -1.066406 2.3125 -0.859375 C 2.164062 -0.660156 1.960938 -0.53125 1.703125 -0.46875 C 1.359375 -0.40625 1.082031 -0.453125 0.875 -0.609375 C 0.675781 -0.765625 0.53125 -0.992188 0.4375 -1.296875 C 0.351562 -1.609375 0.296875 -1.957031 0.265625 -2.34375 C 0.242188 -2.726562 0.242188 -3.113281 0.265625 -3.5 C 0.296875 -3.894531 0.320312 -4.253906 0.34375 -4.578125 C 0.375 -4.898438 0.390625 -5.144531 0.390625 -5.3125 C 0.398438 -5.882812 0.40625 -6.453125 0.40625 -7.015625 C 0.414062 -7.578125 0.414062 -8.140625 0.40625 -8.703125 C 0.40625 -8.972656 0.414062 -9.269531 0.4375 -9.59375 C 0.457031 -9.925781 0.53125 -10.226562 0.65625 -10.5 C 0.789062 -10.78125 1.023438 -10.96875 1.359375 -11.0625 C 1.742188 -11.175781 2.046875 -11.171875 2.265625 -11.046875 C 2.492188 -10.921875 2.664062 -10.71875 2.78125 -10.4375 C 2.894531 -10.164062 2.960938 -9.847656 2.984375 -9.484375 C 3.003906 -9.128906 3 -8.765625 2.96875 -8.390625 C 2.9375 -8.023438 2.890625 -7.6875 2.828125 -7.375 C 2.773438 -7.070312 2.726562 -6.84375 2.6875 -6.6875 C 2.769531 -6.78125 2.9375 -6.957031 3.1875 -7.21875 C 3.445312 -7.476562 3.757812 -7.769531 4.125 -8.09375 C 4.5 -8.425781 4.890625 -8.75 5.296875 -9.0625 C 5.703125 -9.382812 6.097656 -9.648438 6.484375 -9.859375 C 6.878906 -10.066406 7.226562 -10.179688 7.53125 -10.203125 C 7.84375 -10.222656 8.078125 -10.097656 8.234375 -9.828125 C 8.441406 -9.503906 8.484375 -9.179688 8.359375 -8.859375 C 8.242188 -8.546875 8.03125 -8.242188 7.71875 -7.953125 C 7.40625 -7.671875 7.054688 -7.40625 6.671875 -7.15625 C 6.285156 -6.90625 5.921875 -6.6875 5.578125 -6.5 C 5.234375 -6.320312 4.960938 -6.175781 4.765625 -6.0625 C 5.015625 -5.914062 5.304688 -5.671875 5.640625 -5.328125 C 5.972656 -4.992188 6.289062 -4.601562 6.59375 -4.15625 C 6.90625 -3.707031 7.15625 -3.25 7.34375 -2.78125 C 7.539062 -2.3125 7.632812 -1.867188 7.625 -1.453125 C 7.613281 -1.046875 7.453125 -0.710938 7.140625 -0.453125 Z M 7.140625 -0.453125 "/></g></g></g><g fill="#2b2b2b" fill-opacity="1"><g transform="translate(11.783768, 19.003278)"><g><path d="M 5.421875 -0.015625 C 5.222656 -0.0546875 5.070312 -0.164062 4.96875 -0.34375 C 4.875 -0.519531 4.804688 -0.722656 4.765625 -0.953125 C 4.722656 -1.191406 4.695312 -1.421875 4.6875 -1.640625 C 4.675781 -1.859375 4.671875 -2.035156 4.671875 -2.171875 C 4.429688 -1.847656 4.125 -1.566406 3.75 -1.328125 C 3.382812 -1.097656 3 -0.953125 2.59375 -0.890625 C 2.195312 -0.828125 1.820312 -0.875 1.46875 -1.03125 C 1.125 -1.195312 0.835938 -1.5 0.609375 -1.9375 C 0.390625 -2.382812 0.269531 -2.867188 0.25 -3.390625 C 0.238281 -3.910156 0.304688 -4.425781 0.453125 -4.9375 C 0.597656 -5.457031 0.796875 -5.914062 1.046875 -6.3125 C 1.285156 -6.675781 1.570312 -7 1.90625 -7.28125 C 2.25 -7.570312 2.617188 -7.773438 3.015625 -7.890625 C 3.421875 -8.003906 3.804688 -8.003906 4.171875 -7.890625 C 4.546875 -7.773438 4.890625 -7.5 5.203125 -7.0625 C 5.378906 -6.8125 5.523438 -6.585938 5.640625 -6.390625 C 5.765625 -6.203125 5.859375 -6 5.921875 -5.78125 C 5.984375 -5.570312 6.019531 -5.300781 6.03125 -4.96875 L 6.125 -1.78125 C 6.125 -1.65625 6.128906 -1.484375 6.140625 -1.265625 C 6.160156 -1.054688 6.15625 -0.847656 6.125 -0.640625 C 6.09375 -0.429688 6.019531 -0.265625 5.90625 -0.140625 C 5.800781 -0.015625 5.640625 0.0234375 5.421875 -0.015625 Z M 3.265625 -3.859375 C 3.398438 -3.859375 3.539062 -3.929688 3.6875 -4.078125 C 3.832031 -4.234375 3.960938 -4.40625 4.078125 -4.59375 C 4.203125 -4.78125 4.28125 -4.925781 4.3125 -5.03125 C 4.425781 -5.28125 4.441406 -5.5 4.359375 -5.6875 C 4.273438 -5.882812 4.097656 -5.925781 3.828125 -5.8125 C 3.640625 -5.738281 3.460938 -5.578125 3.296875 -5.328125 C 3.128906 -5.078125 3.007812 -4.863281 2.9375 -4.6875 C 2.882812 -4.507812 2.863281 -4.328125 2.875 -4.140625 C 2.882812 -3.960938 3.015625 -3.867188 3.265625 -3.859375 Z M 3.265625 -3.859375 "/></g></g></g><g fill="#2b2b2b" fill-opacity="1"><g transform="translate(18.341828, 19.003278)"><g><path d="M 6.03125 2.03125 C 5.875 2.15625 5.722656 2.195312 5.578125 2.15625 C 5.429688 2.125 5.300781 2.039062 5.1875 1.90625 C 5.082031 1.78125 4.988281 1.648438 4.90625 1.515625 C 4.789062 1.273438 4.71875 1.019531 4.6875 0.75 C 4.65625 0.476562 4.625 0.203125 4.59375 -0.078125 C 4.570312 -0.367188 4.523438 -0.640625 4.453125 -0.890625 C 4.378906 -1.148438 4.242188 -1.378906 4.046875 -1.578125 C 3.835938 -1.398438 3.597656 -1.195312 3.328125 -0.96875 C 3.066406 -0.75 2.789062 -0.550781 2.5 -0.375 C 2.207031 -0.207031 1.921875 -0.0976562 1.640625 -0.046875 C 1.367188 -0.00390625 1.125 -0.0664062 0.90625 -0.234375 C 0.695312 -0.410156 0.539062 -0.738281 0.4375 -1.21875 C 0.289062 -1.875 0.222656 -2.566406 0.234375 -3.296875 C 0.253906 -4.035156 0.320312 -4.769531 0.4375 -5.5 C 0.550781 -6.238281 0.664062 -6.929688 0.78125 -7.578125 C 0.863281 -8.023438 0.953125 -8.519531 1.046875 -9.0625 C 1.148438 -9.601562 1.328125 -10.066406 1.578125 -10.453125 C 1.773438 -10.742188 2.007812 -10.910156 2.28125 -10.953125 C 2.5625 -10.992188 2.816406 -10.9375 3.046875 -10.78125 C 3.285156 -10.632812 3.441406 -10.40625 3.515625 -10.09375 C 3.597656 -9.707031 3.609375 -9.300781 3.546875 -8.875 C 3.492188 -8.457031 3.421875 -8.039062 3.328125 -7.625 C 3.242188 -7.207031 3.191406 -6.800781 3.171875 -6.40625 C 3.140625 -5.8125 3.109375 -5.21875 3.078125 -4.625 C 3.054688 -4.039062 3 -3.460938 2.90625 -2.890625 C 3.082031 -3.066406 3.285156 -3.25 3.515625 -3.4375 C 3.753906 -3.632812 4.003906 -3.789062 4.265625 -3.90625 C 4.523438 -4.019531 4.78125 -4.050781 5.03125 -4 C 5.28125 -3.945312 5.503906 -3.769531 5.703125 -3.46875 C 5.898438 -3.164062 6.03125 -2.800781 6.09375 -2.375 C 6.164062 -1.945312 6.207031 -1.515625 6.21875 -1.078125 C 6.226562 -0.640625 6.238281 -0.253906 6.25 0.078125 C 6.25 0.242188 6.257812 0.457031 6.28125 0.71875 C 6.300781 0.976562 6.300781 1.226562 6.28125 1.46875 C 6.257812 1.71875 6.175781 1.90625 6.03125 2.03125 Z M 6.03125 2.03125 "/></g></g></g><g fill="#2b2b2b" fill-opacity="1"><g transform="translate(25.035805, 19.003278)"><g><path d="M 5.421875 -0.015625 C 5.222656 -0.0546875 5.070312 -0.164062 4.96875 -0.34375 C 4.875 -0.519531 4.804688 -0.722656 4.765625 -0.953125 C 4.722656 -1.191406 4.695312 -1.421875 4.6875 -1.640625 C 4.675781 -1.859375 4.671875 -2.035156 4.671875 -2.171875 C 4.429688 -1.847656 4.125 -1.566406 3.75 -1.328125 C 3.382812 -1.097656 3 -0.953125 2.59375 -0.890625 C 2.195312 -0.828125 1.820312 -0.875 1.46875 -1.03125 C 1.125 -1.195312 0.835938 -1.5 0.609375 -1.9375 C 0.390625 -2.382812 0.269531 -2.867188 0.25 -3.390625 C 0.238281 -3.910156 0.304688 -4.425781 0.453125 -4.9375 C 0.597656 -5.457031 0.796875 -5.914062 1.046875 -6.3125 C 1.285156 -6.675781 1.570312 -7 1.90625 -7.28125 C 2.25 -7.570312 2.617188 -7.773438 3.015625 -7.890625 C 3.421875 -8.003906 3.804688 -8.003906 4.171875 -7.890625 C 4.546875 -7.773438 4.890625 -7.5 5.203125 -7.0625 C 5.378906 -6.8125 5.523438 -6.585938 5.640625 -6.390625 C 5.765625 -6.203125 5.859375 -6 5.921875 -5.78125 C 5.984375 -5.570312 6.019531 -5.300781 6.03125 -4.96875 L 6.125 -1.78125 C 6.125 -1.65625 6.128906 -1.484375 6.140625 -1.265625 C 6.160156 -1.054688 6.15625 -0.847656 6.125 -0.640625 C 6.09375 -0.429688 6.019531 -0.265625 5.90625 -0.140625 C 5.800781 -0.015625 5.640625 0.0234375 5.421875 -0.015625 Z M 3.265625 -3.859375 C 3.398438 -3.859375 3.539062 -3.929688 3.6875 -4.078125 C 3.832031 -4.234375 3.960938 -4.40625 4.078125 -4.59375 C 4.203125 -4.78125 4.28125 -4.925781 4.3125 -5.03125 C 4.425781 -5.28125 4.441406 -5.5 4.359375 -5.6875 C 4.273438 -5.882812 4.097656 -5.925781 3.828125 -5.8125 C 3.640625 -5.738281 3.460938 -5.578125 3.296875 -5.328125 C 3.128906 -5.078125 3.007812 -4.863281 2.9375 -4.6875 C 2.882812 -4.507812 2.863281 -4.328125 2.875 -4.140625 C 2.882812 -3.960938 3.015625 -3.867188 3.265625 -3.859375 Z M 3.265625 -3.859375 "/></g></g></g><g fill="#2b2b2b" fill-opacity="1"><g transform="translate(31.593864, 19.003278)"><g><path d="M 6.59375 1.171875 C 6.34375 0.878906 6.148438 0.519531 6.015625 0.09375 C 5.890625 -0.320312 5.789062 -0.742188 5.71875 -1.171875 C 5.65625 -1.609375 5.585938 -2.007812 5.515625 -2.375 C 5.472656 -2.613281 5.414062 -2.859375 5.34375 -3.109375 C 5.28125 -3.359375 5.171875 -3.5625 5.015625 -3.71875 C 4.867188 -3.875 4.632812 -3.9375 4.3125 -3.90625 C 4.050781 -3.882812 3.8125 -3.789062 3.59375 -3.625 C 3.382812 -3.46875 3.1875 -3.300781 3 -3.125 C 2.75 -2.894531 2.613281 -2.695312 2.59375 -2.53125 C 2.582031 -2.375 2.578125 -2.132812 2.578125 -1.8125 C 2.566406 -1.59375 2.523438 -1.34375 2.453125 -1.0625 C 2.390625 -0.78125 2.289062 -0.539062 2.15625 -0.34375 C 2.019531 -0.144531 1.847656 -0.0351562 1.640625 -0.015625 C 1.441406 0.00390625 1.207031 -0.125 0.9375 -0.40625 C 0.675781 -0.675781 0.492188 -1.019531 0.390625 -1.4375 C 0.296875 -1.851562 0.25 -2.28125 0.25 -2.71875 C 0.257812 -3.15625 0.28125 -3.546875 0.3125 -3.890625 C 0.332031 -4.265625 0.375 -4.660156 0.4375 -5.078125 C 0.5 -5.492188 0.597656 -5.898438 0.734375 -6.296875 C 0.878906 -6.691406 1.082031 -7.03125 1.34375 -7.3125 C 1.582031 -7.582031 1.78125 -7.710938 1.9375 -7.703125 C 2.101562 -7.691406 2.242188 -7.601562 2.359375 -7.4375 C 2.472656 -7.269531 2.5625 -7.0625 2.625 -6.8125 C 2.6875 -6.5625 2.726562 -6.304688 2.75 -6.046875 C 2.78125 -5.796875 2.796875 -5.59375 2.796875 -5.4375 C 3.140625 -5.757812 3.507812 -6.019531 3.90625 -6.21875 C 4.300781 -6.414062 4.695312 -6.523438 5.09375 -6.546875 C 5.488281 -6.578125 5.859375 -6.488281 6.203125 -6.28125 C 6.546875 -6.070312 6.832031 -5.722656 7.0625 -5.234375 C 7.3125 -4.703125 7.5 -4.117188 7.625 -3.484375 C 7.75 -2.859375 7.832031 -2.226562 7.875 -1.59375 C 7.925781 -0.957031 7.953125 -0.351562 7.953125 0.21875 C 7.953125 0.4375 7.921875 0.65625 7.859375 0.875 C 7.796875 1.09375 7.707031 1.269531 7.59375 1.40625 C 7.476562 1.539062 7.332031 1.597656 7.15625 1.578125 C 6.988281 1.566406 6.800781 1.429688 6.59375 1.171875 Z M 6.59375 1.171875 "/></g></g></g><g fill="#2b2b2b" fill-opacity="1"><g transform="translate(39.935849, 19.003278)"><g><path d="M 0.421875 -8.0625 C 0.285156 -8.3125 0.242188 -8.554688 0.296875 -8.796875 C 0.347656 -9.035156 0.453125 -9.226562 0.609375 -9.375 C 0.765625 -9.519531 0.945312 -9.582031 1.15625 -9.5625 C 1.375 -9.539062 1.570312 -9.394531 1.75 -9.125 C 1.9375 -8.851562 2.003906 -8.59375 1.953125 -8.34375 C 1.910156 -8.09375 1.796875 -7.894531 1.609375 -7.75 C 1.429688 -7.601562 1.226562 -7.546875 1 -7.578125 C 0.769531 -7.609375 0.578125 -7.769531 0.421875 -8.0625 Z M 1.671875 -0.1875 C 1.410156 -0.0078125 1.191406 0.046875 1.015625 -0.015625 C 0.847656 -0.0859375 0.710938 -0.226562 0.609375 -0.4375 C 0.515625 -0.65625 0.441406 -0.898438 0.390625 -1.171875 C 0.347656 -1.441406 0.316406 -1.695312 0.296875 -1.9375 C 0.285156 -2.1875 0.273438 -2.367188 0.265625 -2.484375 C 0.253906 -2.867188 0.257812 -3.253906 0.28125 -3.640625 C 0.300781 -4.035156 0.320312 -4.425781 0.34375 -4.8125 C 0.351562 -5.007812 0.359375 -5.234375 0.359375 -5.484375 C 0.359375 -5.742188 0.382812 -5.988281 0.4375 -6.21875 C 0.488281 -6.457031 0.59375 -6.648438 0.75 -6.796875 C 1.007812 -7.054688 1.226562 -7.171875 1.40625 -7.140625 C 1.59375 -7.109375 1.738281 -6.988281 1.84375 -6.78125 C 1.957031 -6.582031 2.046875 -6.34375 2.109375 -6.0625 C 2.171875 -5.789062 2.21875 -5.519531 2.25 -5.25 C 2.28125 -4.988281 2.300781 -4.789062 2.3125 -4.65625 C 2.363281 -4.1875 2.375 -3.722656 2.34375 -3.265625 C 2.3125 -2.804688 2.257812 -2.347656 2.1875 -1.890625 C 2.164062 -1.722656 2.144531 -1.523438 2.125 -1.296875 C 2.101562 -1.078125 2.0625 -0.863281 2 -0.65625 C 1.9375 -0.457031 1.828125 -0.300781 1.671875 -0.1875 Z M 1.671875 -0.1875 "/></g></g></g><g fill="#2b2b2b" fill-opacity="1"><g transform="translate(42.688199, 19.003278)"><g/></g></g><g fill="#2b2b2b" fill-opacity="1"><g transform="translate(47.071567, 19.003278)"><g><path d="M 5.421875 -0.015625 C 5.222656 -0.0546875 5.070312 -0.164062 4.96875 -0.34375 C 4.875 -0.519531 4.804688 -0.722656 4.765625 -0.953125 C 4.722656 -1.191406 4.695312 -1.421875 4.6875 -1.640625 C 4.675781 -1.859375 4.671875 -2.035156 4.671875 -2.171875 C 4.429688 -1.847656 4.125 -1.566406 3.75 -1.328125 C 3.382812 -1.097656 3 -0.953125 2.59375 -0.890625 C 2.195312 -0.828125 1.820312 -0.875 1.46875 -1.03125 C 1.125 -1.195312 0.835938 -1.5 0.609375 -1.9375 C 0.390625 -2.382812 0.269531 -2.867188 0.25 -3.390625 C 0.238281 -3.910156 0.304688 -4.425781 0.453125 -4.9375 C 0.597656 -5.457031 0.796875 -5.914062 1.046875 -6.3125 C 1.285156 -6.675781 1.570312 -7 1.90625 -7.28125 C 2.25 -7.570312 2.617188 -7.773438 3.015625 -7.890625 C 3.421875 -8.003906 3.804688 -8.003906 4.171875 -7.890625 C 4.546875 -7.773438 4.890625 -7.5 5.203125 -7.0625 C 5.378906 -6.8125 5.523438 -6.585938 5.640625 -6.390625 C 5.765625 -6.203125 5.859375 -6 5.921875 -5.78125 C 5.984375 -5.570312 6.019531 -5.300781 6.03125 -4.96875 L 6.125 -1.78125 C 6.125 -1.65625 6.128906 -1.484375 6.140625 -1.265625 C 6.160156 -1.054688 6.15625 -0.847656 6.125 -0.640625 C 6.09375 -0.429688 6.019531 -0.265625 5.90625 -0.140625 C 5.800781 -0.015625 5.640625 0.0234375 5.421875 -0.015625 Z M 3.265625 -3.859375 C 3.398438 -3.859375 3.539062 -3.929688 3.6875 -4.078125 C 3.832031 -4.234375 3.960938 -4.40625 4.078125 -4.59375 C 4.203125 -4.78125 4.28125 -4.925781 4.3125 -5.03125 C 4.425781 -5.28125 4.441406 -5.5 4.359375 -5.6875 C 4.273438 -5.882812 4.097656 -5.925781 3.828125 -5.8125 C 3.640625 -5.738281 3.460938 -5.578125 3.296875 -5.328125 C 3.128906 -5.078125 3.007812 -4.863281 2.9375 -4.6875 C 2.882812 -4.507812 2.863281 -4.328125 2.875 -4.140625 C 2.882812 -3.960938 3.015625 -3.867188 3.265625 -3.859375 Z M 3.265625 -3.859375 "/></g></g></g><g fill="#2b2b2b" fill-opacity="1"><g transform="translate(53.629626, 19.003278)"><g><path d="M 4.953125 -0.03125 C 4.703125 0.0625 4.492188 0.0195312 4.328125 -0.15625 C 4.160156 -0.34375 4.046875 -0.539062 3.984375 -0.75 C 3.566406 -0.425781 3.160156 -0.253906 2.765625 -0.234375 C 2.378906 -0.210938 2.019531 -0.296875 1.6875 -0.484375 C 1.363281 -0.671875 1.085938 -0.929688 0.859375 -1.265625 C 0.628906 -1.609375 0.457031 -1.984375 0.34375 -2.390625 C 0.238281 -2.796875 0.21875 -3.207031 0.28125 -3.625 C 0.375 -4.15625 0.5625 -4.664062 0.84375 -5.15625 C 1.132812 -5.644531 1.46875 -6.078125 1.84375 -6.453125 C 2.007812 -6.609375 2.191406 -6.734375 2.390625 -6.828125 C 2.597656 -6.929688 2.789062 -7.035156 2.96875 -7.140625 C 3.15625 -7.253906 3.28125 -7.40625 3.34375 -7.59375 C 3.4375 -7.832031 3.476562 -8.113281 3.46875 -8.4375 C 3.457031 -8.757812 3.441406 -9.085938 3.421875 -9.421875 C 3.398438 -9.753906 3.414062 -10.066406 3.46875 -10.359375 C 3.53125 -10.648438 3.671875 -10.894531 3.890625 -11.09375 C 4.179688 -11.351562 4.425781 -11.453125 4.625 -11.390625 C 4.832031 -11.335938 5.003906 -11.191406 5.140625 -10.953125 C 5.273438 -10.710938 5.375 -10.453125 5.4375 -10.171875 C 5.5 -9.890625 5.53125 -9.648438 5.53125 -9.453125 C 5.539062 -8.816406 5.546875 -8.175781 5.546875 -7.53125 C 5.546875 -6.882812 5.554688 -6.238281 5.578125 -5.59375 C 5.585938 -4.894531 5.59375 -4.195312 5.59375 -3.5 C 5.601562 -2.800781 5.5625 -2.097656 5.46875 -1.390625 C 5.457031 -1.253906 5.441406 -1.09375 5.421875 -0.90625 C 5.410156 -0.71875 5.375 -0.539062 5.3125 -0.375 C 5.25 -0.21875 5.128906 -0.101562 4.953125 -0.03125 Z M 2.515625 -3.125 C 2.640625 -2.957031 2.765625 -2.890625 2.890625 -2.921875 C 3.023438 -2.960938 3.140625 -3.050781 3.234375 -3.1875 C 3.335938 -3.332031 3.394531 -3.457031 3.40625 -3.5625 C 3.46875 -3.875 3.457031 -4.210938 3.375 -4.578125 C 3.300781 -4.953125 3.257812 -5.300781 3.25 -5.625 C 3.039062 -5.46875 2.847656 -5.238281 2.671875 -4.9375 C 2.492188 -4.644531 2.378906 -4.332031 2.328125 -4 C 2.285156 -3.675781 2.347656 -3.382812 2.515625 -3.125 Z M 2.515625 -3.125 "/></g></g></g><g fill="#2b2b2b" fill-opacity="1"><g transform="translate(59.610034, 19.003278)"><g><path d="M 4.953125 -0.03125 C 4.703125 0.0625 4.492188 0.0195312 4.328125 -0.15625 C 4.160156 -0.34375 4.046875 -0.539062 3.984375 -0.75 C 3.566406 -0.425781 3.160156 -0.253906 2.765625 -0.234375 C 2.378906 -0.210938 2.019531 -0.296875 1.6875 -0.484375 C 1.363281 -0.671875 1.085938 -0.929688 0.859375 -1.265625 C 0.628906 -1.609375 0.457031 -1.984375 0.34375 -2.390625 C 0.238281 -2.796875 0.21875 -3.207031 0.28125 -3.625 C 0.375 -4.15625 0.5625 -4.664062 0.84375 -5.15625 C 1.132812 -5.644531 1.46875 -6.078125 1.84375 -6.453125 C 2.007812 -6.609375 2.191406 -6.734375 2.390625 -6.828125 C 2.597656 -6.929688 2.789062 -7.035156 2.96875 -7.140625 C 3.15625 -7.253906 3.28125 -7.40625 3.34375 -7.59375 C 3.4375 -7.832031 3.476562 -8.113281 3.46875 -8.4375 C 3.457031 -8.757812 3.441406 -9.085938 3.421875 -9.421875 C 3.398438 -9.753906 3.414062 -10.066406 3.46875 -10.359375 C 3.53125 -10.648438 3.671875 -10.894531 3.890625 -11.09375 C 4.179688 -11.351562 4.425781 -11.453125 4.625 -11.390625 C 4.832031 -11.335938 5.003906 -11.191406 5.140625 -10.953125 C 5.273438 -10.710938 5.375 -10.453125 5.4375 -10.171875 C 5.5 -9.890625 5.53125 -9.648438 5.53125 -9.453125 C 5.539062 -8.816406 5.546875 -8.175781 5.546875 -7.53125 C 5.546875 -6.882812 5.554688 -6.238281 5.578125 -5.59375 C 5.585938 -4.894531 5.59375 -4.195312 5.59375 -3.5 C 5.601562 -2.800781 5.5625 -2.097656 5.46875 -1.390625 C 5.457031 -1.253906 5.441406 -1.09375 5.421875 -0.90625 C 5.410156 -0.71875 5.375 -0.539062 5.3125 -0.375 C 5.25 -0.21875 5.128906 -0.101562 4.953125 -0.03125 Z M 2.515625 -3.125 C 2.640625 -2.957031 2.765625 -2.890625 2.890625 -2.921875 C 3.023438 -2.960938 3.140625 -3.050781 3.234375 -3.1875 C 3.335938 -3.332031 3.394531 -3.457031 3.40625 -3.5625 C 3.46875 -3.875 3.457031 -4.210938 3.375 -4.578125 C 3.300781 -4.953125 3.257812 -5.300781 3.25 -5.625 C 3.039062 -5.46875 2.847656 -5.238281 2.671875 -4.9375 C 2.492188 -4.644531 2.378906 -4.332031 2.328125 -4 C 2.285156 -3.675781 2.347656 -3.382812 2.515625 -3.125 Z M 2.515625 -3.125 "/></g></g></g><g fill="#2b2b2b" fill-opacity="1"><g transform="translate(65.590445, 19.003278)"><g><path d="M 5.421875 -0.015625 C 5.222656 -0.0546875 5.070312 -0.164062 4.96875 -0.34375 C 4.875 -0.519531 4.804688 -0.722656 4.765625 -0.953125 C 4.722656 -1.191406 4.695312 -1.421875 4.6875 -1.640625 C 4.675781 -1.859375 4.671875 -2.035156 4.671875 -2.171875 C 4.429688 -1.847656 4.125 -1.566406 3.75 -1.328125 C 3.382812 -1.097656 3 -0.953125 2.59375 -0.890625 C 2.195312 -0.828125 1.820312 -0.875 1.46875 -1.03125 C 1.125 -1.195312 0.835938 -1.5 0.609375 -1.9375 C 0.390625 -2.382812 0.269531 -2.867188 0.25 -3.390625 C 0.238281 -3.910156 0.304688 -4.425781 0.453125 -4.9375 C 0.597656 -5.457031 0.796875 -5.914062 1.046875 -6.3125 C 1.285156 -6.675781 1.570312 -7 1.90625 -7.28125 C 2.25 -7.570312 2.617188 -7.773438 3.015625 -7.890625 C 3.421875 -8.003906 3.804688 -8.003906 4.171875 -7.890625 C 4.546875 -7.773438 4.890625 -7.5 5.203125 -7.0625 C 5.378906 -6.8125 5.523438 -6.585938 5.640625 -6.390625 C 5.765625 -6.203125 5.859375 -6 5.921875 -5.78125 C 5.984375 -5.570312 6.019531 -5.300781 6.03125 -4.96875 L 6.125 -1.78125 C 6.125 -1.65625 6.128906 -1.484375 6.140625 -1.265625 C 6.160156 -1.054688 6.15625 -0.847656 6.125 -0.640625 C 6.09375 -0.429688 6.019531 -0.265625 5.90625 -0.140625 C 5.800781 -0.015625 5.640625 0.0234375 5.421875 -0.015625 Z M 3.265625 -3.859375 C 3.398438 -3.859375 3.539062 -3.929688 3.6875 -4.078125 C 3.832031 -4.234375 3.960938 -4.40625 4.078125 -4.59375 C 4.203125 -4.78125 4.28125 -4.925781 4.3125 -5.03125 C 4.425781 -5.28125 4.441406 -5.5 4.359375 -5.6875 C 4.273438 -5.882812 4.097656 -5.925781 3.828125 -5.8125 C 3.640625 -5.738281 3.460938 -5.578125 3.296875 -5.328125 C 3.128906 -5.078125 3.007812 -4.863281 2.9375 -4.6875 C 2.882812 -4.507812 2.863281 -4.328125 2.875 -4.140625 C 2.882812 -3.960938 3.015625 -3.867188 3.265625 -3.859375 Z M 3.265625 -3.859375 "/></g></g></g></svg>